<svg preserveAspectRatio="none" width="100%" height="100%" overflow="visible" style="display: block;" viewBox="0 0 300 95.5011" fill="none" xmlns="http://www.w3.org/2000/svg">
<path id="Vector" d="M0.500134 81.0009C0.500134 81.0009 11.4703 53.3 18.8687 44.1429C26.0121 34.9858 33.4105 34.9858 40.5539 44.1429C47.9524 53.3 55.3508 71.6142 62.4942 71.6142C69.8926 71.6142 77.036 53.3 84.4344 44.1429C91.5778 34.9858 98.9762 34.9858 106.375 41.0906C113.518 47.1953 120.916 59.4048 128.06 62.4571C135.458 65.5095 142.602 59.4048 150 68.5619C157.399 77.719 164.542 102.138 171.94 92.9808C179.084 83.8237 186.482 41.0906 193.626 38.0382C201.024 34.9858 208.422 71.6142 215.566 68.5619C222.964 65.5095 230.108 22.7763 237.506 7.5145C244.649 -7.74735 252.048 4.46213 259.446 19.724C266.59 34.9858 273.988 53.3 281.132 56.3524C288.53 59.4048 295.673 47.1953 299.5 41.0906" stroke="var(--stroke-0, #FF0000)" stroke-linecap="round"/>
</svg>
