<svg preserveAspectRatio="none" width="100%" height="100%" overflow="visible" style="display: block;" viewBox="0 0 299 113.75" fill="none" xmlns="http://www.w3.org/2000/svg">
<path id="Vector" d="M18.3686 43.642C10.9701 52.7991 3.82679 71.1133 0 80.2704V113.75H299L299 40.5896C295.173 46.6944 288.03 58.9039 280.631 55.8515C273.488 52.7991 266.09 34.4849 258.946 19.2231C251.548 3.96122 244.149 -8.24825 237.006 7.01359C229.607 22.2754 222.464 65.0086 215.066 68.061C207.922 71.1133 200.524 34.4849 193.125 37.5373C185.982 40.5896 178.584 83.3228 171.44 92.4799C164.042 101.637 156.898 77.2181 149.5 68.061C142.102 58.9039 134.958 65.0086 127.56 61.9562C120.416 58.9039 113.018 46.6944 105.875 40.5896C98.4761 34.4849 91.0776 34.4849 83.9343 43.642C76.5358 52.7991 69.3925 71.1133 61.994 71.1133C54.8507 71.1133 47.4522 52.7991 40.0538 43.642C32.9104 34.4849 25.5119 34.4849 18.3686 43.642Z" fill="url(#paint0_linear_0_52)"/>
<defs>
<linearGradient id="paint0_linear_0_52" x1="149.5" y1="1.57718e-07" x2="149.5" y2="112.875" gradientUnits="userSpaceOnUse">
<stop offset="0.151042" stop-color="#F20505"/>
<stop offset="0.958333" stop-color="#FF5959" stop-opacity="0.05"/>
</linearGradient>
</defs>
</svg>
