<svg width="40" height="40" viewBox="0 0 40 40" fill="none" xmlns="http://www.w3.org/2000/svg">
  <g clip-path="url(#clip0_deploy_usdt)">
    <path
      d="M20.0636 2.09254C29.95 2.09254 37.9639 10.1067 37.964 19.9929C37.964 29.8794 29.9501 37.8933 20.0636 37.8933C10.1775 37.8933 2.16318 29.8793 2.16318 19.9929C2.16324 10.1067 10.1776 2.0926 20.0636 2.09254Z"
      fill="#1BA27A"
      stroke="#01D294"
      stroke-width="4"
    />
    <path
      d="M27.3932 12.4053H12.6563V15.8149H18.2459V20.8263H21.8036V15.8149H27.3932V12.4053Z"
      fill="white"
    />
    <path
      d="M20.0248 22.16C15.3653 22.16 11.5876 21.4347 11.5876 20.5399C11.5876 19.6453 15.3651 18.9199 20.0248 18.9199C24.6844 18.9199 28.4619 19.6453 28.4619 20.5399C28.4619 21.4347 24.6844 22.16 20.0248 22.16ZM29.4984 20.81C29.4984 19.6563 25.257 18.7211 20.0248 18.7211C14.7928 18.7211 10.5511 19.6563 10.5511 20.81C10.5511 21.826 13.8401 22.6725 18.1983 22.8601V30.3H21.7833V22.863C26.1751 22.6813 29.4984 21.8313 29.4984 20.81Z"
      fill="white"
    />
  </g>
  <defs>
    <clipPath id="clip0_deploy_usdt">
      <rect width="40" height="40" fill="white" />
    </clipPath>
  </defs>
</svg>
