<svg preserveAspectRatio="none" width="100%" height="100%" overflow="visible" style="display: block;" viewBox="0 0 17.0125 16.2392" fill="none" xmlns="http://www.w3.org/2000/svg">
<path id="Shape" fill-rule="evenodd" clip-rule="evenodd" d="M13.4733 1.29354C12.6875 1.19124 11.6551 1.19007 10.2018 1.19009L6.92367 1.19012C5.41483 1.19013 4.34291 1.1914 3.52973 1.30103C2.73363 1.40835 2.27497 1.60962 1.94009 1.94539C1.60522 2.28117 1.4045 2.74106 1.29748 3.53928C1.18816 4.35462 1.18691 5.4294 1.18693 6.94226L1.187 13.2891C1.18701 14.0018 1.18857 14.468 1.2354 14.788C1.25756 14.9394 1.2838 15.0131 1.30013 15.0458C1.33608 15.0393 1.41057 15.0161 1.54465 14.9431C1.82805 14.7886 2.20101 14.5101 2.76959 14.0825L3.07066 13.8561L3.14999 13.7964C3.9103 13.2243 4.40153 12.8547 4.98134 12.6609C5.56115 12.4671 6.17531 12.4673 7.12589 12.4675L7.22507 12.4675H10.2018C11.6551 12.4675 12.6875 12.4663 13.4734 12.364C14.2434 12.2638 14.6906 12.0755 15.0206 11.7627C15.0556 11.7296 15.0896 11.6955 15.1226 11.6604C15.4346 11.3295 15.6224 10.8811 15.7224 10.109C15.8244 9.32107 15.8256 8.28592 15.8256 6.8288C15.8256 5.37166 15.8244 4.3365 15.7224 3.54854C15.6224 2.77647 15.4346 2.32803 15.1226 1.99715C15.0896 1.9621 15.0556 1.92799 15.0206 1.89485C14.6906 1.58204 14.2434 1.39377 13.4733 1.29354ZM1.27229 15.0472C1.27263 15.0466 1.27645 15.0464 1.28276 15.0481C1.27512 15.0485 1.27196 15.0477 1.27229 15.0472ZM1.30875 15.0611C1.31387 15.0652 1.31599 15.0684 1.31577 15.069C1.31555 15.0695 1.31299 15.0675 1.30875 15.0611ZM13.6261 0.113356C14.522 0.229973 15.2509 0.475425 15.836 1.03006C15.8871 1.07848 15.9368 1.12834 15.9851 1.17957C16.5383 1.76623 16.7831 2.49704 16.8994 3.39532C17.0125 4.2688 17.0125 5.3813 17.0125 6.78575V6.8288V6.87184C17.0125 8.27628 17.0125 9.38877 16.8994 10.2622C16.7831 11.1605 16.5383 11.8913 15.9851 12.478C15.9368 12.5292 15.8871 12.5791 15.836 12.6275C15.2509 13.1821 14.5221 13.4276 13.6262 13.5442C12.755 13.6576 11.6455 13.6576 10.2448 13.6576H10.2018H7.22507C6.14091 13.6576 5.73156 13.6646 5.3567 13.7899C4.98184 13.9152 4.65015 14.1559 3.78285 14.8081L3.48177 15.0345L3.44356 15.0633C2.92382 15.4542 2.4808 15.7874 2.11143 15.9887C1.7369 16.1928 1.25571 16.3635 0.765588 16.1178C0.275464 15.8721 0.122954 15.3837 0.0610596 14.9608C2.08616e-05 14.5438 4.52979e-05 13.9885 7.40208e-05 13.337L7.52471e-05 13.2891L2.4729e-06 6.94227L8.69317e-07 6.89751C-2.7618e-05 5.43946 -5.01797e-05 4.28456 0.121135 3.38072C0.245853 2.45053 0.508643 1.69763 1.1008 1.10388C1.69297 0.510132 2.44385 0.246627 3.37157 0.121558C4.27301 3.09795e-05 5.42483 3.08797e-05 6.87902 3.07851e-05L6.92366 3.06432e-05L10.2018 6.61525e-07H10.2447C11.6454 -2.25579e-05 12.755 -4.09558e-05 13.6261 0.113356ZM11.7241 3.9669C12.0518 3.9669 12.3176 4.23331 12.3176 4.56194V5.32811H12.8846H14.0452C14.3729 5.32811 14.6386 5.59452 14.6386 5.92315C14.6386 6.25178 14.3729 6.51819 14.0452 6.51819H13.377C13.2097 7.19877 12.8451 8.07912 12.189 8.87778C12.5545 9.19351 12.9491 9.43325 13.353 9.54044C13.6699 9.62453 13.8587 9.95025 13.7749 10.2679C13.691 10.5856 13.3661 10.775 13.0493 10.6909C12.3945 10.5171 11.8185 10.1418 11.3396 9.71377C10.8306 10.1169 10.2134 10.4586 9.46998 10.685C9.15637 10.7805 8.82491 10.6031 8.72965 10.2886C8.63439 9.97417 8.81139 9.64183 9.125 9.54632C9.67343 9.37928 10.1357 9.13173 10.5229 8.83921C10.1278 8.34023 9.83191 7.84383 9.66045 7.48988C9.51726 7.19428 9.64017 6.83824 9.93499 6.69466C10.2298 6.55108 10.5849 6.67432 10.7281 6.96993C10.8531 7.22802 11.0748 7.60508 11.3717 7.99523C11.756 7.49609 12.0027 6.9675 12.1459 6.51819H11.7241H9.29749C8.96973 6.51819 8.70403 6.25178 8.70403 5.92315C8.70403 5.59452 8.96973 5.32811 9.29749 5.32811H11.1306V4.56194C11.1306 4.23331 11.3963 3.9669 11.7241 3.9669ZM5.65337 3.19344C5.4158 2.52648 4.47508 2.52649 4.23752 3.19344L3.12613 6.3136L2.40835 8.32876C2.29811 8.63824 2.45897 8.97874 2.76763 9.08927C3.0763 9.1998 3.41589 9.03851 3.52612 8.72902L4.10325 7.10878H5.78764L6.36476 8.72902C6.475 9.03851 6.81458 9.1998 7.12325 9.08927C7.43191 8.97874 7.59277 8.63824 7.48253 8.32876L6.76475 6.3136L5.65337 3.19344ZM4.94544 4.74435L5.36374 5.9187H4.52715L4.94544 4.74435Z" fill="var(--fill-0, #141414)"/>
</svg>
