<svg preserveAspectRatio="none" width="100%" height="100%" overflow="visible" style="display: block;" viewBox="0 0 30 30" fill="none" xmlns="http://www.w3.org/2000/svg">
<g id="Frame">
<path id="Vector" d="M15 24.7959C9.60002 24.7959 5.2041 20.4 5.2041 15C5.2041 9.60002 9.60002 5.2041 15 5.2041C20.4 5.2041 24.7959 9.60002 24.7959 15C24.7959 20.4 20.4 24.7959 15 24.7959ZM15 6.18369C10.1388 6.18369 6.18369 10.1388 6.18369 15C6.18369 19.8612 10.1388 23.8163 15 23.8163C19.8612 23.8163 23.8163 19.8612 23.8163 15C23.8163 10.1388 19.8612 6.18369 15 6.18369Z" fill="var(--fill-0, #AFA3A3)"/>
<path id="Vector_2" d="M15 24.7959C14.7307 24.7959 14.5103 24.5755 14.5103 24.3061V5.6939C14.5103 5.42451 14.7307 5.2041 15 5.2041C15.2694 5.2041 15.4898 5.42451 15.4898 5.6939V24.3061C15.4898 24.5755 15.2694 24.7959 15 24.7959Z" fill="var(--fill-0, #AFA3A3)"/>
<path id="Vector_3" d="M24.3061 15.4898H5.6939C5.42451 15.4898 5.2041 15.2694 5.2041 15C5.2041 14.7307 5.42451 14.5103 5.6939 14.5103H24.3061C24.5755 14.5103 24.7959 14.7307 24.7959 15C24.7959 15.2694 24.5755 15.4898 24.3061 15.4898Z" fill="var(--fill-0, #AFA3A3)"/>
<path id="Vector_4" d="M8.3388 21.9795C8.21635 21.9795 8.08165 21.9306 7.98369 21.8326C6.19594 19.9959 5.2041 17.5591 5.2041 15C5.2041 12.4408 6.19594 10.004 7.98369 8.16731C8.16737 7.97139 8.48573 7.97139 8.68165 8.15506C8.87757 8.33873 8.87757 8.6571 8.6939 8.85302C7.07757 10.5061 6.18369 12.6857 6.18369 15C6.18369 17.3142 7.07757 19.4938 8.68165 21.1469C8.86533 21.3428 8.86533 21.6489 8.66941 21.8449C8.58369 21.9306 8.46124 21.9795 8.3388 21.9795Z" fill="var(--fill-0, #AFA3A3)"/>
<path id="Vector_5" d="M14.8164 24.796C14.8041 24.796 14.8041 24.796 14.8164 24.796C12.2205 24.747 9.79599 23.6939 7.98374 21.8327C7.80007 21.6368 7.80007 21.3429 7.98374 21.147C8.90211 20.2041 9.96741 19.4694 11.1674 18.9674C11.2899 18.9184 11.4246 18.9184 11.547 18.9674C11.6695 19.0164 11.7674 19.1143 11.8164 19.2368C12.5144 21.0368 13.6654 22.6654 15.1348 23.9266C15.2939 24.0613 15.3429 24.2817 15.2695 24.4776C15.196 24.6613 15.0123 24.796 14.8164 24.796ZM9.0368 21.4899C10.2858 22.6409 11.8041 23.3878 13.4572 23.6817C12.4654 22.6286 11.6695 21.4041 11.0939 20.0817C10.347 20.449 9.64905 20.9143 9.0368 21.4899ZM11.3511 11.0694C11.2899 11.0694 11.2164 11.0572 11.1552 11.0327C9.95517 10.5184 8.88986 9.78373 7.9715 8.85312C7.78782 8.6572 7.78782 8.36332 7.9715 8.16741C9.79599 6.30618 12.2082 5.26537 14.8041 5.20414C15.0123 5.1919 15.196 5.32659 15.2695 5.52251C15.3429 5.71843 15.2817 5.93883 15.1348 6.07353C13.6531 7.33475 12.5021 8.95108 11.8041 10.7633C11.7552 10.8858 11.6572 10.9837 11.5348 11.0327C11.4858 11.0572 11.4123 11.0694 11.3511 11.0694ZM9.0368 8.51026C9.66129 9.08577 10.347 9.55108 11.0939 9.93067C11.6695 8.60822 12.4776 7.38373 13.4572 6.33067C11.8041 6.6123 10.2858 7.35924 9.0368 8.51026ZM21.6613 21.9797C21.5388 21.9797 21.4164 21.9307 21.3184 21.845C21.1225 21.6613 21.1225 21.3429 21.3062 21.147C22.9225 19.4939 23.8164 17.3143 23.8164 15.0001C23.8164 12.6858 22.9225 10.5062 21.3184 8.85312C21.1348 8.6572 21.1348 8.35108 21.3307 8.15516C21.5266 7.97149 21.8327 7.97149 22.0286 8.16741C23.8041 10.0041 24.796 12.4409 24.796 15.0001C24.796 17.5592 23.8041 19.996 22.0164 21.8327C21.9184 21.9307 21.796 21.9797 21.6613 21.9797Z" fill="var(--fill-0, #AFA3A3)"/>
<path id="Vector_6" d="M15.0612 24.7959C14.853 24.7959 14.6694 24.6735 14.6081 24.4775C14.5347 24.2816 14.5959 24.0734 14.7428 23.9388C16.2367 22.6653 17.3877 21.0245 18.0857 19.2C18.1347 19.0775 18.2326 18.9796 18.3551 18.9306C18.4775 18.8816 18.6122 18.8816 18.7347 18.9306C19.9714 19.4449 21.0857 20.1918 22.0286 21.1592C22.2122 21.3551 22.2122 21.649 22.0286 21.8449C20.1796 23.7306 17.7061 24.7714 15.0612 24.7959ZM18.8081 20.0204C18.2204 21.3796 17.4122 22.6286 16.3959 23.7061C18.0979 23.4367 19.6775 22.6775 20.9632 21.4898C20.3143 20.8898 19.5918 20.4 18.8081 20.0204ZM18.5388 11.1183C18.4775 11.1183 18.4041 11.1061 18.3428 11.0816C18.2204 11.0326 18.1224 10.9347 18.0735 10.8122C17.3755 8.98774 16.2245 7.34692 14.7306 6.07345C14.5714 5.93876 14.5224 5.71835 14.5959 5.53468C14.6694 5.33876 14.853 5.21631 15.049 5.21631C17.6939 5.22855 20.1551 6.28161 22.0041 8.17957C22.1877 8.37549 22.1877 8.66937 22.0041 8.86529C21.0612 9.83263 19.9592 10.5796 18.7102 11.0939C18.6735 11.1061 18.6 11.1183 18.5388 11.1183ZM16.3959 6.29386C17.4 7.37141 18.2204 8.62039 18.8081 9.97957C19.5918 9.59998 20.3265 9.11019 20.9632 8.51019C19.6775 7.32243 18.0979 6.56325 16.3959 6.29386Z" fill="var(--fill-0, #AFA3A3)"/>
<path id="Vector_7" d="M11.351 19.9102C11.2898 19.9102 11.2163 19.8979 11.1551 19.8734C11.0326 19.8245 10.9347 19.7265 10.8857 19.6041C10.3224 18.1347 10.0286 16.5918 10.0286 15.0122C10.0286 13.4326 10.3102 11.8898 10.8857 10.4204C10.9347 10.2979 11.0326 10.2 11.1551 10.151C11.2775 10.102 11.4122 10.102 11.5347 10.151C12.6367 10.6041 13.8 10.8367 15 10.8367C16.1633 10.8367 17.2898 10.6163 18.3551 10.1755C18.4775 10.1265 18.6122 10.1265 18.7347 10.1755C18.8571 10.2245 18.9551 10.3224 19.0041 10.4449C19.5551 11.902 19.8367 13.4326 19.8367 14.9877C19.8367 16.5551 19.5551 18.0857 19.0041 19.5306C18.9551 19.653 18.8571 19.751 18.7347 19.8C18.6122 19.849 18.4775 19.849 18.3551 19.8C17.2898 19.3592 16.1633 19.1387 15 19.1387C13.8 19.1387 12.6367 19.3714 11.5469 19.8367C11.4857 19.8979 11.4122 19.9102 11.351 19.9102ZM11.6449 11.2285C11.2286 12.4408 11.0204 13.7143 11.0204 15C11.0204 16.2857 11.2286 17.5592 11.6449 18.7714C12.7224 18.3796 13.849 18.1836 15 18.1836C16.1143 18.1836 17.2041 18.3673 18.2449 18.7347C18.649 17.5347 18.8571 16.2734 18.8571 15C18.8571 13.7143 18.649 12.4653 18.2449 11.2653C17.2041 11.6326 16.1143 11.8163 15 11.8163C13.8367 11.8163 12.7102 11.6204 11.6449 11.2285Z" fill="var(--fill-0, #AFA3A3)"/>
</g>
</svg>
