<svg preserveAspectRatio="none" width="100%" height="100%" overflow="visible" style="display: block;" viewBox="0 0 24 24" fill="none" xmlns="http://www.w3.org/2000/svg">
<g id="sponsor 1">
<path id="Vector" d="M22.0237 17.2965C21.5445 17.0992 20.1427 16.5277 18.7035 15.9667C20.1592 14.3842 20.9902 12.2977 20.9902 10.14C20.9902 5.38425 17.1203 1.515 12.3638 1.515C7.608 1.515 3.73875 5.38425 3.73875 10.14C3.73875 10.5202 3.76275 10.8982 3.81075 11.2642C3.86475 11.6745 4.24425 11.9595 4.65225 11.9107C5.06325 11.8567 5.35275 11.4802 5.29875 11.0692C5.259 10.7677 5.23875 10.455 5.23875 10.14C5.23875 6.2115 8.43525 3.015 12.3638 3.015C16.293 3.015 19.4902 6.2115 19.4902 10.14C19.4902 12.126 18.6907 13.9687 17.2372 15.3307C17.2192 15.348 17.2117 15.372 17.1945 15.39C16.1902 15.0165 15.3352 14.7225 14.997 14.6715C14.4135 14.58 13.8562 14.85 13.518 15.3487C13.236 15.7657 13.1647 16.2585 13.3282 16.6672C13.4287 16.917 13.809 17.4382 14.2605 18.0097C13.1722 18.0082 11.511 17.8612 9.741 17.178C9.00825 16.8952 8.1135 15.9442 7.32375 15.1057C6.1995 13.911 5.1375 12.783 3.9825 12.783C3.55275 12.783 3.14475 12.9435 2.80275 13.2465C2.37525 13.6267 1.97925 14.379 2.5215 15.807C3.5205 18.4357 7.40925 22.4895 10.5308 22.4895H21.7372C22.152 22.4895 22.4872 22.1542 22.4872 21.7395V17.9895C22.4887 17.6865 22.305 17.412 22.0237 17.2965ZM20.9887 20.9902H10.5562L10.5322 21.7402V20.9902C8.24475 20.9902 4.7415 17.4247 3.92475 15.2745C3.68775 14.6497 3.76725 14.3977 3.7995 14.3692C3.89625 14.2837 3.9525 14.2837 3.98325 14.2837C4.49025 14.2837 5.4975 15.3532 6.2325 16.134C7.17525 17.136 8.151 18.1717 9.201 18.5775C11.1982 19.3485 13.0657 19.5105 14.2807 19.5105C15.2505 19.5105 15.8647 19.4085 15.8902 19.404C16.1557 19.3582 16.3762 19.1752 16.4685 18.9225C16.5615 18.6697 16.512 18.387 16.3387 18.1815C15.7057 17.4292 14.9655 16.4985 14.7615 16.1812C14.7682 16.1677 14.7735 16.1572 14.7697 16.1542C15.3052 16.236 18.5767 17.5125 20.9872 18.4942V20.9902H20.9887Z" fill="var(--fill-0, #9C8787)"/>
<g id="Frame">
<path id="Vector_2" d="M14.6693 8.59547C15.0585 8.59547 15.3741 8.27996 15.3741 7.89074C15.3741 7.37179 14.9534 6.9511 14.4344 6.9511H9.4636C9.00952 6.9511 8.64142 7.31921 8.64142 7.77329C8.64142 8.22737 9.00952 8.59548 9.46361 8.59548H11.1235V9.66979C9.10586 9.76053 7.58652 10.1583 7.58652 10.6355C7.58652 11.1127 9.10584 11.5104 11.1235 11.6011V14.1647C11.1235 14.653 11.5194 15.0489 12.0077 15.0489C12.4961 15.0489 12.892 14.653 12.892 14.1647V11.6003C14.9019 11.5082 16.4135 11.1112 16.4135 10.6355C16.4135 10.1596 14.9019 9.7625 12.892 9.67051V8.59546L14.6693 8.59547ZM15.6533 10.5383C15.6533 10.8522 14.4785 11.1154 12.892 11.1885L12.7894 11.1929H12.7781L12.682 11.1964H12.6716C12.6 11.1989 12.5277 11.201 12.4544 11.2026H12.4498L12.3515 11.2046H12.3237L12.2462 11.2057H11.7549L11.6781 11.2046H11.6514L11.5597 11.2027H11.5496C11.4409 11.2003 11.3338 11.1969 11.2283 11.1929H11.227L11.1219 11.1883C9.52747 11.1163 8.34509 10.8522 8.34509 10.5368C8.34509 10.2214 9.52767 9.958 11.1219 9.88523V10.8826C11.3987 10.897 11.6931 10.9049 11.9985 10.9049C12.3087 10.9049 12.609 10.8969 12.8904 10.8818V9.88819C14.4784 9.9611 15.6533 10.2245 15.6533 10.5383Z" fill="var(--fill-0, #9C8787)"/>
</g>
</g>
</svg>
