<svg preserveAspectRatio="none" width="100%" height="100%" overflow="visible" style="display: block;" viewBox="0 0 16 16" fill="none" xmlns="http://www.w3.org/2000/svg">
<g id="Frame">
<path id="Vector" d="M7.24999 12.2555C7.24999 12.6697 7.58578 13.0055 8 13.0055C8.41422 13.0055 8.75001 12.6697 8.75001 12.2555C8.75001 11.8413 8.41422 11.5055 8 11.5055C7.58578 11.5055 7.24999 11.8413 7.24999 12.2555Z" fill="var(--fill-0, #FFE6D9)"/>
<path id="Vector_2" d="M8 15C4.14001 15 1 11.86 1 8C1 4.14001 4.14001 1 8 1C11.86 1 15 4.14001 15 8C15 11.86 11.86 15 8 15ZM8 2.00449C4.69399 2.00449 2.00449 4.69399 2.00449 8C2.00449 11.3055 4.69399 13.9955 8 13.9955C11.3055 13.9955 13.9955 11.3055 13.9955 8C13.9955 4.69399 11.3055 2.00449 8 2.00449Z" fill="var(--fill-0, #FFE6D9)"/>
<path id="Vector_3" d="M8 10.5265C7.72399 10.5265 7.49999 10.3025 7.49999 10.0265V9.181C7.49999 8.36299 8.12498 7.73799 8.67698 7.18651C9.08147 6.78151 9.49999 6.3635 9.49999 6.03C9.49999 5.19651 8.82699 4.51851 8 4.51851C7.15901 4.51851 6.50001 5.1675 6.50001 5.996C6.50001 6.27201 6.27601 6.49598 6 6.49598C5.72399 6.49598 5.49999 6.27198 5.49999 5.996C5.49999 4.63 6.62148 3.51851 8 3.51851C9.37852 3.51851 10.5 4.64499 10.5 6.03C10.5 6.7785 9.93251 7.34549 9.38401 7.89399C8.94901 8.32799 8.50001 8.77699 8.50001 9.18049V10.026C8.50001 10.302 8.27601 10.5265 8 10.5265Z" fill="var(--fill-0, #FFE6D9)"/>
</g>
</svg>
