<svg preserveAspectRatio="none" width="100%" height="100%" overflow="visible" style="display: block;" viewBox="0 0 32 32" fill="none" xmlns="http://www.w3.org/2000/svg">
<g id="Group 1171277141">
<circle id="Ellipse 60" cx="16" cy="16" r="15.5" fill="url(#paint0_linear_0_39)" stroke="url(#paint1_linear_0_39)"/>
<g id="Frame">
<path id="Vector" d="M10.7826 22.7478C10.5739 22.7478 10.4348 22.6087 10.4348 22.4V16.6609C10.4348 16.4522 10.5739 16.313 10.7826 16.313C10.9913 16.313 11.1304 16.4522 11.1304 16.6609V22.4C11.1304 22.5739 10.9913 22.7478 10.7826 22.7478ZM14.2261 22.7478C14.0174 22.7478 13.8783 22.6087 13.8783 22.4V14.9565C13.8783 14.7478 14.0174 14.6087 14.2261 14.6087C14.4348 14.6087 14.5739 14.7478 14.5739 14.9565V22.3652C14.5739 22.5739 14.4 22.7478 14.2261 22.7478ZM17.6348 22.5043C17.4261 22.5043 17.287 22.3652 17.287 22.1565V17.4261C17.287 17.2174 17.4261 17.0783 17.6348 17.0783C17.8435 17.0783 17.9826 17.2174 17.9826 17.4261V22.1565C17.9826 22.3652 17.8435 22.5043 17.6348 22.5043ZM21.0783 22.5043C20.8696 22.5043 20.7304 22.3652 20.7304 22.1565V13.5652C20.7304 13.3565 20.8696 13.2174 21.0783 13.2174C21.287 13.2174 21.4261 13.3565 21.4261 13.5652V22.1565C21.4261 22.3652 21.2522 22.5043 21.0783 22.5043Z" fill="var(--fill-0, #FF1B1B)"/>
<path id="Vector_2" d="M9.46087 15.8261C9.35652 15.8261 9.28696 15.7913 9.21739 15.7217C9.07826 15.5826 9.11304 15.3739 9.25217 15.2348L13.5304 11.2696C13.913 10.9217 14.5391 10.9217 14.9217 11.3043L17.4609 13.7739C17.5652 13.8783 17.7739 13.8783 17.8783 13.7739L22.087 9.98261C22.2261 9.84348 22.4348 9.87826 22.5739 10.0174C22.713 10.1565 22.6783 10.3652 22.5391 10.5043L18.3304 14.2957C17.9478 14.6435 17.3217 14.6435 16.9391 14.2609L14.4 11.7913C14.2957 11.687 14.087 11.687 13.9826 11.7913L9.70435 15.7217C9.63478 15.7913 9.56522 15.8261 9.46087 15.8261Z" fill="var(--fill-0, #FF1B1B)"/>
</g>
</g>
<defs>
<linearGradient id="paint0_linear_0_39" x1="16" y1="0" x2="16" y2="32" gradientUnits="userSpaceOnUse">
<stop stop-color="white"/>
<stop offset="1" stop-color="#FFE0E0" stop-opacity="0.59"/>
</linearGradient>
<linearGradient id="paint1_linear_0_39" x1="16" y1="0" x2="16" y2="32" gradientUnits="userSpaceOnUse">
<stop stop-color="#FF6060"/>
<stop offset="0.447115" stop-color="#BF0000"/>
<stop offset="1" stop-color="#FF3F3F"/>
</linearGradient>
</defs>
</svg>
