<svg preserveAspectRatio="none" width="100%" height="100%" overflow="visible" style="display: block;" viewBox="0 0 34 34" fill="none" xmlns="http://www.w3.org/2000/svg">
<g id="Group 1171277141">
<circle id="Ellipse 60" cx="17" cy="17" r="15.5" fill="url(#paint0_linear_0_33)" stroke="url(#paint1_linear_0_33)"/>
<g id="Frame">
<path id="Vector" d="M16.6674 15.4478C15.0043 15.4478 13.6739 14.1174 13.6739 12.4543C13.6739 10.7913 15.0043 9.46087 16.6674 9.46087C18.3304 9.46087 19.6609 10.7913 19.6609 12.4543C19.6609 14.1174 18.3304 15.4478 16.6674 15.4478ZM16.6674 10.2C15.4109 10.2 14.413 11.1978 14.413 12.4543C14.413 13.7109 15.4109 14.7087 16.6674 14.7087C17.9239 14.7087 18.9217 13.7109 18.9217 12.4543C18.9217 11.1978 17.9239 10.2 16.6674 10.2ZM10.163 23.0609C9.20217 23.0609 8.42609 22.2848 8.42609 21.3239C8.42609 20.363 9.20217 19.587 10.163 19.587C11.1239 19.587 11.9 20.363 11.9 21.3239C11.9 22.2848 11.1239 23.0609 10.163 23.0609ZM10.163 20.3261C9.60869 20.3261 9.16522 20.7696 9.16522 21.3239C9.16522 21.8783 9.60869 22.3217 10.163 22.3217C10.7174 22.3217 11.1609 21.8783 11.1609 21.3239C11.1609 20.7696 10.7174 20.3261 10.163 20.3261ZM16.6674 23.0609C15.7065 23.0609 14.9304 22.2848 14.9304 21.3239C14.9304 20.363 15.7065 19.587 16.6674 19.587C17.6283 19.587 18.4043 20.363 18.4043 21.3239C18.4043 22.2848 17.6283 23.0609 16.6674 23.0609ZM16.6674 20.3261C16.113 20.3261 15.6696 20.7696 15.6696 21.3239C15.6696 21.8783 16.113 22.3217 16.6674 22.3217C17.2217 22.3217 17.6652 21.8783 17.6652 21.3239C17.6652 20.7696 17.2217 20.3261 16.6674 20.3261ZM23.1717 23.0609C22.2109 23.0609 21.4348 22.2848 21.4348 21.3239C21.4348 20.363 22.2109 19.587 23.1717 19.587C24.1326 19.587 24.9087 20.363 24.9087 21.3239C24.9087 22.2848 24.1326 23.0609 23.1717 23.0609ZM23.1717 20.3261C22.6174 20.3261 22.1739 20.7696 22.1739 21.3239C22.1739 21.8783 22.6174 22.3217 23.1717 22.3217C23.7261 22.3217 24.1696 21.8783 24.1696 21.3239C24.1696 20.7696 23.7261 20.3261 23.1717 20.3261Z" fill="var(--fill-0, #FF1B1B)"/>
<path id="Vector_2" d="M23.1717 20.2891C22.95 20.2891 22.8022 20.1413 22.8022 19.9196V17.7761H10.5326V19.9196C10.5326 20.1413 10.3848 20.2891 10.163 20.2891C9.9413 20.2891 9.79348 20.1413 9.79348 19.9196V17.7761C9.79348 17.3696 10.1261 17.037 10.5326 17.037H22.8022C23.2087 17.037 23.5413 17.3696 23.5413 17.7761V19.9196C23.5413 20.1413 23.3565 20.2891 23.1717 20.2891Z" fill="var(--fill-0, #FF1B1B)"/>
<path id="Vector_3" d="M16.6674 20.2891C16.4457 20.2891 16.2978 20.1413 16.2978 19.9196V15.3C16.2978 15.0783 16.4457 14.9304 16.6674 14.9304C16.8891 14.9304 17.037 15.0783 17.037 15.3V19.9565C17.037 20.1413 16.8522 20.2891 16.6674 20.2891Z" fill="var(--fill-0, #FF1B1B)"/>
</g>
</g>
<defs>
<linearGradient id="paint0_linear_0_33" x1="17" y1="1" x2="17" y2="33" gradientUnits="userSpaceOnUse">
<stop stop-color="white"/>
<stop offset="1" stop-color="#FFE0E0" stop-opacity="0.59"/>
</linearGradient>
<linearGradient id="paint1_linear_0_33" x1="17" y1="1" x2="17" y2="33" gradientUnits="userSpaceOnUse">
<stop stop-color="#FF6060"/>
<stop offset="0.447115" stop-color="#BF0000"/>
<stop offset="1" stop-color="#FF3F3F"/>
</linearGradient>
</defs>
</svg>
