<svg preserveAspectRatio="none" width="100%" height="100%" overflow="visible" style="display: block;" viewBox="0 0 32 32" fill="none" xmlns="http://www.w3.org/2000/svg">
<g id="Group 1171277141">
<circle id="Ellipse 60" cx="16" cy="16" r="15.5" fill="url(#paint0_linear_0_46)" stroke="url(#paint1_linear_0_46)"/>
<g id="Frame">
<path id="Vector" d="M9.77391 19.4087C9.66957 19.4087 9.6 19.3739 9.53043 19.3043C9.3913 19.1304 9.3913 18.9217 9.53043 18.7826L13.8087 14.8174C14.1913 14.4696 14.8174 14.4696 15.2 14.8522L17.7391 17.3217C17.8435 17.4261 18.0522 17.4261 18.1565 17.3217L22.3652 13.5304C22.5043 13.3913 22.713 13.4261 22.8522 13.5652C22.9913 13.7043 22.9565 13.913 22.8174 14.0522L18.6087 17.8783C18.2261 18.2261 17.6 18.2261 17.2174 17.8435L14.6783 15.3739C14.5739 15.2696 14.3652 15.2696 14.2609 15.3739L9.98261 19.3043C9.94783 19.3739 9.84348 19.4087 9.77391 19.4087Z" fill="var(--fill-0, #FF1B1B)"/>
<path id="Vector_2" d="M8.73043 21.8087C7.7913 21.8087 6.9913 21.0435 6.9913 20.0696C6.9913 19.1304 7.75652 18.3304 8.73043 18.3304C9.66956 18.3304 10.4696 19.0957 10.4696 20.0696C10.4696 21.0435 9.70435 21.8087 8.73043 21.8087ZM8.73043 19.0609C8.17391 19.0609 7.68696 19.513 7.68696 20.1043C7.68696 20.6609 8.13913 21.1478 8.73043 21.1478C9.28696 21.1478 9.77391 20.6957 9.77391 20.1043C9.77391 19.513 9.32174 19.0609 8.73043 19.0609ZM14.4348 15.2696C13.7739 15.2696 13.2522 14.7478 13.2522 14.087C13.2522 13.4261 13.7739 12.9043 14.4348 12.9043C15.0957 12.9043 15.6174 13.4261 15.6174 14.087C15.6174 14.7478 15.0957 15.2696 14.4348 15.2696ZM14.4348 13.6C14.1565 13.6 13.9478 13.8087 13.9478 14.087C13.9478 14.3652 14.1565 14.5739 14.4348 14.5739C14.713 14.5739 14.9217 14.3652 14.9217 14.087C14.9217 13.8087 14.713 13.6 14.4348 13.6ZM23.4435 14.3304C22.6087 14.3304 21.913 13.6348 21.913 12.8C21.913 11.9652 22.6087 11.2696 23.4435 11.2696C24.2783 11.2696 24.9739 11.9652 24.9739 12.8C24.9739 13.6348 24.2783 14.3304 23.4435 14.3304ZM23.4435 11.9652C22.9913 11.9652 22.6087 12.3478 22.6087 12.8C22.6087 13.2522 22.9913 13.6348 23.4435 13.6348C23.8957 13.6348 24.2783 13.2522 24.2783 12.8C24.2783 12.313 23.8957 11.9652 23.4435 11.9652Z" fill="var(--fill-0, #FF1B1B)"/>
</g>
</g>
<defs>
<linearGradient id="paint0_linear_0_46" x1="16" y1="0" x2="16" y2="32" gradientUnits="userSpaceOnUse">
<stop stop-color="white"/>
<stop offset="1" stop-color="#FFE0E0" stop-opacity="0.59"/>
</linearGradient>
<linearGradient id="paint1_linear_0_46" x1="16" y1="0" x2="16" y2="32" gradientUnits="userSpaceOnUse">
<stop stop-color="#FF6060"/>
<stop offset="0.447115" stop-color="#BF0000"/>
<stop offset="1" stop-color="#FF3F3F"/>
</linearGradient>
</defs>
</svg>
