<svg preserveAspectRatio="none" width="100%" height="100%" overflow="visible" style="display: block;" viewBox="0 0 20 20" fill="none" xmlns="http://www.w3.org/2000/svg">
<g id="Frame">
<path id="Vector" d="M14.865 13.971C14.6645 13.971 14.4722 13.8914 14.3304 13.7496C14.1887 13.6078 14.109 13.4155 14.109 13.215C14.109 13.0145 14.1887 12.8222 14.3304 12.6804C14.4722 12.5386 14.6645 12.459 14.865 12.459C15.0589 12.459 15.2448 12.382 15.3819 12.2449C15.519 12.1078 15.596 11.9219 15.596 11.728V5.176C15.596 4.98213 15.519 4.79619 15.3819 4.65911C15.2448 4.52202 15.0589 4.445 14.865 4.445H8.313C8.11913 4.445 7.93319 4.52202 7.79611 4.65911C7.65902 4.79619 7.582 4.98213 7.582 5.176C7.582 5.3765 7.50235 5.5688 7.36057 5.71057C7.2188 5.85235 7.0265 5.932 6.826 5.932C6.6255 5.932 6.4332 5.85235 6.29143 5.71057C6.14965 5.5688 6.07 5.3765 6.07 5.176C6.07132 4.58153 6.30806 4.01178 6.72842 3.59142C7.14878 3.17106 7.71853 2.93432 8.313 2.933H14.865C15.4595 2.93432 16.0292 3.17106 16.4496 3.59142C16.8699 4.01178 17.1067 4.58153 17.108 5.176V11.728C17.1067 12.3225 16.8699 12.8922 16.4496 13.3126C16.0292 13.7329 15.4595 13.9697 14.865 13.971Z" fill="var(--fill-0, #F77D7D)"/>
<path id="Vector_2" d="M11.513 17.248H5.238C4.92679 17.2484 4.61855 17.1874 4.33096 17.0685C4.04336 16.9496 3.78204 16.7751 3.56198 16.555C3.34192 16.335 3.16744 16.0736 3.04853 15.786C2.92961 15.4984 2.86861 15.1902 2.869 14.879V8.579C2.86847 8.2677 2.92938 7.95936 3.04824 7.67165C3.16709 7.38394 3.34156 7.1225 3.56163 6.90234C3.7817 6.68217 4.04306 6.5076 4.33072 6.38862C4.61839 6.26964 4.9267 6.2086 5.238 6.209H11.513C11.8242 6.20861 12.1324 6.26961 12.42 6.38853C12.7076 6.50744 12.969 6.68192 13.189 6.90198C13.4091 7.12204 13.5836 7.38336 13.7025 7.67096C13.8214 7.95856 13.8824 8.26679 13.882 8.578V14.878C13.907 16.189 12.824 17.248 11.513 17.248ZM5.238 7.721C5.1252 7.72007 5.01334 7.7416 4.90894 7.78434C4.80454 7.82707 4.7097 7.89016 4.62993 7.96993C4.55016 8.0497 4.48707 8.14454 4.44434 8.24894C4.4016 8.35334 4.38007 8.4652 4.381 8.578V14.878C4.38007 14.9908 4.4016 15.1027 4.44434 15.2071C4.48707 15.3115 4.55016 15.4063 4.62993 15.4861C4.7097 15.5658 4.80454 15.6289 4.90894 15.6717C5.01334 15.7144 5.1252 15.7359 5.238 15.735H11.513C11.6258 15.7359 11.7377 15.7144 11.8421 15.6717C11.9465 15.6289 12.0413 15.5658 12.1211 15.4861C12.2008 15.4063 12.2639 15.3115 12.3067 15.2071C12.3494 15.1027 12.3709 14.9908 12.37 14.878V8.578C12.3709 8.4652 12.3494 8.35334 12.3067 8.24894C12.2639 8.14454 12.2008 8.0497 12.1211 7.96993C12.0413 7.89016 11.9465 7.82707 11.8421 7.78434C11.7377 7.7416 11.6258 7.72007 11.513 7.721H5.238Z" fill="var(--fill-0, #F77D7D)"/>
</g>
</svg>
