<svg preserveAspectRatio="none" width="100%" height="100%" overflow="visible" style="display: block;" viewBox="0 0 23 23" fill="none" xmlns="http://www.w3.org/2000/svg">
<g id="Group 1171277234">
<circle id="Ellipse 59" cx="11.5" cy="11.5" r="11.5" fill="url(#paint0_linear_0_45)"/>
<g id="Frame">
<path id="Vector" d="M16.2799 8.59369V6.26416H6.742V8.59369H10.2583V10.1156C7.39995 10.2442 5.24756 10.8076 5.24756 11.4837C5.24756 12.1597 7.39993 12.7231 10.2583 12.8517V17.7361H12.7636V12.8506C15.611 12.7201 17.7524 12.1576 17.7524 11.4837C17.7524 10.8096 15.611 10.247 12.7636 10.1167V8.59367H16.2799V8.59369ZM16.6755 11.346C16.6755 11.7907 15.0112 12.1636 12.7636 12.2672L12.6184 12.2733H12.6023L12.4661 12.2783H12.4514C12.3501 12.2818 12.2475 12.2848 12.1437 12.2871H12.1373L11.998 12.29H11.9586L11.8487 12.2915H11.1527L11.044 12.29H11.0062L10.8762 12.2873H10.862C10.7079 12.2839 10.5563 12.2791 10.4068 12.2733H10.4049L10.2561 12.2669C7.99724 12.1649 6.32219 11.7907 6.32219 11.3439C6.32219 10.8971 7.99752 10.5239 10.2561 10.4208V11.8338C10.6481 11.8542 11.0652 11.8654 11.4978 11.8654C11.9373 11.8654 12.3628 11.854 12.7614 11.8326V10.425C15.011 10.5283 16.6755 10.9015 16.6755 11.346Z" fill="var(--fill-0, white)"/>
</g>
</g>
<defs>
<linearGradient id="paint0_linear_0_45" x1="11.5" y1="0" x2="11.5" y2="23" gradientUnits="userSpaceOnUse">
<stop stop-color="#1CE397"/>
<stop offset="1" stop-color="#00724A"/>
</linearGradient>
</defs>
</svg>
