<svg preserveAspectRatio="none" width="100%" height="100%" overflow="visible" style="display: block;" viewBox="0 0 19 19" fill="none" xmlns="http://www.w3.org/2000/svg">
<g id="Frame" clip-path="url(#clip0_0_42)">
<path id="Vector" d="M9.5 2.375C8.56433 2.375 7.63783 2.55929 6.77338 2.91736C5.90894 3.27542 5.12348 3.80025 4.46186 4.46186C3.80025 5.12348 3.27542 5.90894 2.91736 6.77338C2.55929 7.63783 2.375 8.56433 2.375 9.5C2.375 10.4357 2.55929 11.3622 2.91736 12.2266C3.27542 13.0911 3.80025 13.8765 4.46186 14.5381C5.12348 15.1998 5.90894 15.7246 6.77338 16.0826C7.63783 16.4407 8.56433 16.625 9.5 16.625C11.3897 16.625 13.2019 15.8743 14.5381 14.5381C15.8743 13.2019 16.625 11.3897 16.625 9.5C16.625 7.61033 15.8743 5.79806 14.5381 4.46186C13.2019 3.12567 11.3897 2.375 9.5 2.375ZM9.5 0.791667C14.3094 0.791667 18.2083 4.69063 18.2083 9.5C18.2083 14.3094 14.3094 18.2083 9.5 18.2083C4.69063 18.2083 0.791667 14.3094 0.791667 9.5C0.791667 4.69063 4.69063 0.791667 9.5 0.791667Z" fill="var(--fill-0, #2E2F30)"/>
<path id="Vector_2" d="M10.2917 8.70833H13.4583V10.2917H10.2917V13.4583H8.70833V10.2917H5.54167V8.70833H8.70833V5.54167H10.2917V8.70833Z" fill="var(--fill-0, #2E2F30)"/>
</g>
<defs>
<clipPath id="clip0_0_42">
<rect width="19" height="19" fill="white"/>
</clipPath>
</defs>
</svg>
