<svg preserveAspectRatio="none" width="100%" height="100%" overflow="visible" style="display: block;" viewBox="0 0 20 20" fill="none" xmlns="http://www.w3.org/2000/svg">
<g id="Frame" clip-path="url(#clip0_0_84)">
<path id="Vector" d="M0 10C-1.95685e-08 11.3132 0.258658 12.6136 0.761205 13.8268C1.26375 15.0401 2.00035 16.1425 2.92893 17.0711C3.85752 17.9997 4.95991 18.7362 6.17317 19.2388C7.38642 19.7413 8.68678 20 10 20C11.3132 20 12.6136 19.7413 13.8268 19.2388C15.0401 18.7362 16.1425 17.9997 17.0711 17.0711C17.9997 16.1425 18.7362 15.0401 19.2388 13.8268C19.7413 12.6136 20 11.3132 20 10C20 8.68678 19.7413 7.38642 19.2388 6.17317C18.7362 4.95991 17.9997 3.85752 17.0711 2.92893C16.1425 2.00035 15.0401 1.26375 13.8268 0.761205C12.6136 0.258658 11.3132 0 10 0C8.68678 0 7.38642 0.258658 6.17317 0.761205C4.95991 1.26375 3.85752 2.00035 2.92893 2.92893C2.00035 3.85752 1.26375 4.95991 0.761205 6.17317C0.258658 7.38642 -1.95685e-08 8.68678 0 10Z" fill="var(--fill-0, #26A17B)"/>
<path id="Vector_2" d="M15.3035 9.50332C15.3035 8.68281 13.2924 8.20195 11.0338 8.08789V7.08359H14.1889V4.9707H5.76582V7.08359H8.92109V8.08789C6.6627 8.20195 4.65137 8.68301 4.65137 9.50332C4.65137 10.3234 6.6625 10.8043 8.92109 10.9184V14.9926H11.034V10.9186C13.2924 10.8045 15.3035 10.3234 15.3035 9.50332ZM11.0338 10.567V10.5627C10.6887 10.5838 10.3295 10.5908 9.97734 10.5908C9.6252 10.5908 9.26602 10.5838 8.9209 10.5627V10.567C6.46973 10.4432 5.00332 9.9041 5.00332 9.50332C5.00332 9.10273 6.46953 8.56328 8.9209 8.43945V10.2105C9.25898 10.2316 9.61113 10.2387 9.97734 10.2387C10.3506 10.2387 10.7027 10.2316 11.0338 10.2105V8.43945C13.485 8.56328 14.9514 9.10273 14.9514 9.50332C14.9514 9.9041 13.4852 10.4432 11.0338 10.567Z" fill="var(--fill-0, white)"/>
</g>
<defs>
<clipPath id="clip0_0_84">
<rect width="20" height="20" fill="white"/>
</clipPath>
</defs>
</svg>
