<svg preserveAspectRatio="none" width="100%" height="100%" overflow="visible" style="display: block;" viewBox="0 0 18 18" fill="none" xmlns="http://www.w3.org/2000/svg">
<g id="Frame" clip-path="url(#clip0_0_38)">
<path id="Vector" d="M8.99707 0.0996094C13.9119 0.0996478 17.8955 4.08373 17.8955 8.99707C17.8955 13.9113 13.9128 17.8945 8.99707 17.8945C4.08343 17.8945 0.0996473 13.9113 0.0996094 8.99707C0.0996094 4.0837 4.0837 0.0996094 8.99707 0.0996094Z" fill="var(--fill-0, #F3F3F3)" stroke="var(--stroke-0, #9F9F9F)" stroke-width="0.2"/>
<path id="Vector_2" d="M8.997 5.085C9.5165 5.0759 10.0326 5.17036 10.5152 5.36287C10.9978 5.55539 11.4372 5.84209 11.8078 6.20625C12.1784 6.57042 12.4728 7.00475 12.6737 7.4839C12.8746 7.96305 12.9781 8.47742 12.9781 8.997C12.9781 9.51658 12.8746 10.0309 12.6737 10.5101C12.4728 10.9893 12.1784 11.4236 11.8078 11.7877C11.4372 12.1519 10.9978 12.4386 10.5152 12.6311C10.0326 12.8236 9.5165 12.9181 8.997 12.909C7.97529 12.8853 7.00339 12.4628 6.28915 11.7318C5.57491 11.0009 5.17504 10.0194 5.17504 8.99745C5.17504 7.97546 5.57491 6.99404 6.28915 6.26306C7.00339 5.53208 7.97529 5.10958 8.997 5.0859" fill="var(--fill-0, #D80027)"/>
</g>
<defs>
<clipPath id="clip0_0_38">
<rect width="18" height="18" fill="white"/>
</clipPath>
</defs>
</svg>
