<svg preserveAspectRatio="none" width="100%" height="100%" overflow="visible" style="display: block;" viewBox="0 0 18 18" fill="none" xmlns="http://www.w3.org/2000/svg">
<g id="Frame" clip-path="url(#clip0_0_32)">
<g id="Vector">
</g>
<path id="Vector_2" d="M9 0.0996094C13.8948 0.0996094 17.9004 4.10523 17.9004 9C17.9004 13.8948 13.8948 17.9004 9 17.9004C4.10523 17.9004 0.0996094 13.8948 0.0996094 9C0.0996094 4.10523 4.10523 0.0996094 9 0.0996094Z" fill="var(--fill-0, white)" stroke="var(--stroke-0, #9F9F9F)" stroke-width="0.2"/>
<path id="Vector_3" d="M3.87 4.05L4.32 4.32L2.52 7.02L2.16 6.75L3.87 4.05ZM4.59 4.5L5.04 4.77L3.24 7.47L2.79 7.2L4.59 4.5ZM5.22 4.95L5.67 5.22L3.87 7.92L3.42 7.65L5.22 4.95ZM2.07 12.06L2.52 11.79L4.32 14.49L3.87 14.76L2.07 12.06ZM2.79 11.61L3.24 11.34L4.05 12.6L3.6 12.87L2.79 11.61ZM3.42 11.16L3.87 10.89L5.67 13.59L5.22 13.86L3.42 11.16ZM3.69 13.14L4.14 12.87L4.95 14.13L4.5 14.31L3.69 13.14ZM14.85 5.31L14.4 5.58L13.59 4.41L14.04 4.14L14.85 5.31ZM15.21 7.2L14.76 7.47L12.96 4.77L13.41 4.5L15.21 7.2ZM15.84 6.84L15.39 7.11L14.58 5.85L15.03 5.58L15.84 6.84ZM13.5 6.12L13.05 6.39L12.24 5.22L12.69 4.95L13.5 6.12ZM14.58 7.65L14.13 7.92L13.32 6.66L13.77 6.39L14.58 7.65ZM14.13 10.8L14.58 11.07L13.77 12.24L13.32 11.97L14.13 10.8ZM13.14 12.24L13.5 12.6L12.69 13.86L12.24 13.59L13.14 12.24ZM15.39 11.7L15.84 11.97L15.03 13.14L14.58 12.87L15.39 11.7ZM14.4 13.23L14.85 13.5L14.04 14.76L13.59 14.49L14.4 13.23ZM14.76 11.25L15.21 11.52L14.4 12.78L13.95 12.51L14.76 11.25ZM13.77 12.78L14.22 13.05L13.32 14.4L12.87 14.13L13.77 12.78Z" fill="var(--fill-0, #211613)"/>
<path id="Vector_4" d="M8.91 9.54C9.45 8.82 10.53 8.64 11.25 9.27C11.97 9.81 12.06 10.89 11.52 11.61C12.69 10.08 12.33 8.01 10.98 6.93C9.54 5.76 7.47 6.03 6.39 7.47C5.85 8.19 5.94 9.27 6.66 9.81C7.38 10.35 8.37 10.26 8.91 9.54Z" fill="var(--fill-0, #B63139)"/>
<path id="Vector_5" d="M8.91 9.54C8.37 10.26 7.29 10.44 6.57 9.81C5.85 9.18 5.76 8.19 6.39 7.47C5.22 9 5.58 11.07 6.93 12.15C8.37 13.32 10.44 13.05 11.52 11.61C12.06 10.89 11.97 9.81 11.25 9.27C10.53 8.64 9.54 8.73 8.91 9.54Z" fill="var(--fill-0, #18548D)"/>
</g>
<defs>
<clipPath id="clip0_0_32">
<rect width="18" height="18" fill="white"/>
</clipPath>
</defs>
</svg>
