<svg preserveAspectRatio="none" width="100%" height="100%" overflow="visible" style="display: block;" viewBox="0 0 18 18" fill="none" xmlns="http://www.w3.org/2000/svg">
<g id="Frame">
<g clip-path="url(#clip0_0_4)">
<path id="Vector" d="M0 0H18V18H0V0Z" fill="var(--fill-0, #DD4631)"/>
<path id="Vector_2" d="M2.59555 3.93998L2.96777 5.18372L4.1905 5.17872L3.20391 5.92717L3.56913 7.08386L2.59555 6.36343L1.62297 7.08386L1.98719 5.92717L1.0006 5.17872L2.22333 5.18372L2.59555 3.93998ZM6.48487 6.28238L6.61495 6.67361L7.00418 6.6596L6.698 6.90775L6.82607 7.27097L6.50988 7.05284L6.2077 7.29098L6.31177 6.92076L5.99158 6.69262L6.37981 6.68162L6.48487 6.28238ZM6.26374 4.6444L6.54291 4.94558L6.89011 4.76948L6.71301 5.12369L6.97816 5.40085L6.60094 5.33481L6.42383 5.67902L6.3668 5.29779L5.98157 5.22575L6.33078 5.05164L6.26374 4.6444ZM5.60835 3.49672L5.56532 3.90696L5.92454 4.06005L5.54431 4.15511L5.50929 4.53934L5.31317 4.20614L4.93995 4.29419L5.1881 4.00202L4.99098 3.65881L5.34819 3.81391L5.60835 3.49672ZM5.60635 7.45608L5.57132 7.86632L5.93154 8.01241L5.55431 8.11447L5.5263 8.4997L5.32418 8.17051L4.95296 8.26656L5.1951 7.96838L4.99198 7.62918L5.35219 7.77727L5.60635 7.45608Z" fill="var(--fill-0, #FFDE00)"/>
</g>
</g>
<defs>
<clipPath id="clip0_0_4">
<rect width="18" height="18" rx="9" fill="white"/>
</clipPath>
</defs>
</svg>
