<svg preserveAspectRatio="none" width="100%" height="100%" overflow="visible" style="display: block;" viewBox="0 0 18 18" fill="none" xmlns="http://www.w3.org/2000/svg">
<g id="Frame" clip-path="url(#clip0_0_12)">
<path id="Vector" d="M15.6273 3.83215H8.7368V5.55477H16.6295C16.3632 4.94371 16.0269 4.36564 15.6273 3.83215Z" fill="var(--fill-0, #ED4C5C)"/>
<path id="Vector_2" d="M17.1776 10.7226C17.2898 10.1552 17.3475 9.57838 17.3499 9H0.123715C0.126064 9.57864 0.184007 10.1549 0.295977 10.7226H17.1776Z" fill="var(--fill-0, #F9F9F9)"/>
<path id="Vector_3" d="M8.7368 0.386916V2.10953H13.9046C12.4138 0.991364 10.6004 0.386916 8.7368 0.386916Z" fill="var(--fill-0, #ED4C5C)"/>
<path id="Vector_4" d="M8.7368 3.83215H15.6273C15.1426 3.17442 14.5624 2.595 13.9046 2.10953H8.7368V3.83215ZM16.6295 5.55477H8.7368V7.27738H17.1776C17.057 6.68525 16.8732 6.10775 16.6295 5.55477Z" fill="var(--fill-0, #F9F9F9)"/>
<path id="Vector_5" d="M8.7368 7.27738V9H17.3499C17.3474 8.42162 17.2898 7.84479 17.1776 7.27738H8.7368ZM0.845648 12.4452H16.6287C16.873 11.8924 17.057 11.3146 17.1776 10.7226H0.295977C0.417343 11.3146 0.60135 11.8924 0.845648 12.4452Z" fill="var(--fill-0, #ED4C5C)"/>
<path id="Vector_6" d="M1.84633 14.1679H15.6273C16.0266 13.6346 16.3633 13.056 16.6295 12.4452H0.845648C1.11187 13.056 1.447 13.6346 1.84633 14.1679Z" fill="var(--fill-0, #F9F9F9)"/>
<path id="Vector_7" d="M1.84633 14.1679C2.33703 14.8199 2.9169 15.3998 3.56895 15.8905H13.9047C14.5592 15.4027 15.1395 14.8224 15.6273 14.1679H1.84633Z" fill="var(--fill-0, #ED4C5C)"/>
<path id="Vector_8" d="M3.56895 15.8905C5.05984 17.0086 6.87318 17.6131 8.7368 17.6131C10.6004 17.6131 12.4138 17.0086 13.9046 15.8905H3.56895Z" fill="var(--fill-0, #F9F9F9)"/>
<path id="Vector_9" d="M8.7368 0.386916C6.45247 0.386916 4.2617 1.29436 2.64643 2.90963C1.03116 4.5249 0.123715 6.71567 0.123715 9H8.7368V0.386916Z" fill="var(--fill-0, #2A5F9E)"/>
<path id="Vector_10" d="M5.25946 7.15915C4.83731 7.14985 4.43557 6.97562 4.1403 6.67377C3.84502 6.37192 3.67968 5.96645 3.67968 5.5442C3.67968 5.12194 3.84502 4.71647 4.1403 4.41462C4.43557 4.11277 4.83731 3.93854 5.25946 3.92924C5.57971 3.92611 5.89213 4.0232 6.15287 4.20878C5.97129 3.99445 5.74552 3.82192 5.49104 3.70298C5.23655 3.58405 4.95937 3.52154 4.67847 3.51973C4.14446 3.51973 3.63231 3.73187 3.25471 4.10947C2.8771 4.48708 2.66497 4.99922 2.66497 5.53323C2.66497 6.06725 2.8771 6.57939 3.25471 6.957C3.63231 7.3346 4.14446 7.54674 4.67847 7.54674C4.96022 7.54358 5.23794 7.47936 5.49248 7.35851C5.74702 7.23766 5.97233 7.06306 6.15287 6.84673C5.89605 7.04326 5.58284 7.1521 5.26025 7.15915H5.25946ZM7.01418 5.21024L7.20837 4.69346L7.15434 5.25331L7.55289 4.86572L7.27258 5.33944L7.78936 5.16718L7.33757 5.4796L7.87549 5.55477L7.33757 5.62994L7.78936 5.94236L7.27258 5.77009L7.55289 6.24381L7.15434 5.85622L7.20837 6.41607L7.01418 5.89929L6.82078 6.41607L6.87481 5.85622L6.47547 6.24381L6.75579 5.77009L6.23901 5.94236L6.69158 5.62994L6.15287 5.55477L6.69158 5.4796L6.23901 5.16718L6.75579 5.33944L6.47626 4.86572L6.87481 5.25331L6.82 4.69346L7.01418 5.21024Z" fill="var(--fill-0, #FFE62E)"/>
</g>
<defs>
<clipPath id="clip0_0_12">
<rect width="18" height="18" fill="white"/>
</clipPath>
</defs>
</svg>
