<svg preserveAspectRatio="none" width="100%" height="100%" overflow="visible" style="display: block;" viewBox="0 0 18 18" fill="none" xmlns="http://www.w3.org/2000/svg">
<g id="Frame" clip-path="url(#clip0_0_9)">
<path id="Vector" d="M0 9C0 11.3869 0.948212 13.6761 2.63604 15.364C4.32387 17.0518 6.61305 18 9 18C11.3869 18 13.6761 17.0518 15.364 15.364C17.0518 13.6761 18 11.3869 18 9C18 6.61305 17.0518 4.32387 15.364 2.63604C13.6761 0.948212 11.3869 0 9 0C6.61305 0 4.32387 0.948212 2.63604 2.63604C0.948212 4.32387 0 6.61305 0 9Z" fill="var(--fill-0, #F42F4C)"/>
<path id="Vector_2" d="M9 11.0891L11.97 13.2007L10.8405 9.768L13.7993 7.57725H10.1404L9.00038 4.20075L7.89338 7.57725H4.20075L7.14825 9.768L6.03 13.2007L9 11.0891Z" fill="var(--fill-0, #FFE62E)"/>
</g>
<defs>
<clipPath id="clip0_0_9">
<rect width="18" height="18" fill="white"/>
</clipPath>
</defs>
</svg>
