<svg preserveAspectRatio="none" width="100%" height="100%" overflow="visible" style="display: block;" viewBox="0 0 18 18" fill="none" xmlns="http://www.w3.org/2000/svg">
<g id="Frame" clip-path="url(#clip0_0_23)">
<g id="Vector">
</g>
<path id="Vector_2" d="M0.379435 11.0452H17.6204C17.7262 10.5971 17.7969 10.1414 17.8317 9.68235H0.16827C0.203393 10.1414 0.273992 10.597 0.379435 11.0452ZM1.53558 13.772H16.4644C16.7422 13.339 16.9819 12.8827 17.1808 12.4083H0.819742C1.01847 12.8827 1.25796 13.339 1.5355 13.772H1.53558ZM4.28055 16.4975H13.7199C14.3298 16.1129 14.8906 15.6552 15.3897 15.1347H2.61023C3.1095 15.6552 3.67042 16.1129 4.28055 16.4975ZM13.7209 1.50461H4.27953C3.66938 1.88898 3.10863 2.34666 2.60981 2.86743H15.3902C14.8915 2.34667 14.3309 1.88899 13.7209 1.50461Z" fill="var(--fill-0, white)"/>
<path id="Vector_3" d="M0.819742 12.4084H17.1808C17.3642 11.9667 17.5112 11.5108 17.6204 11.0452H0.379435C0.489221 11.5107 0.63647 11.9666 0.819742 12.4084ZM2.61023 15.1347H15.3897C15.7915 14.7166 16.1515 14.2602 16.4643 13.7719H1.53558C1.84875 14.26 2.20866 14.7164 2.61023 15.1347ZM8.99994 17.8611C10.7356 17.8611 12.3529 17.3599 13.7198 16.4974H4.28055C5.64743 17.3599 7.26492 17.8611 8.99994 17.8611ZM0.379435 6.95655H17.6207C17.5112 6.49097 17.3641 6.03506 17.1808 5.59331H0.819149C0.635895 6.03507 0.48884 6.49098 0.379435 6.95655ZM0.139522 9.00086C0.139522 9.23 0.151055 9.45686 0.16827 9.68244H17.8317C17.8489 9.45686 17.8605 9.23 17.8605 9.00086C17.8605 8.77087 17.8489 8.5441 17.8317 8.31962H0.16827C0.151055 8.5441 0.139522 8.77087 0.139522 9.00086ZM2.60981 2.86734C2.20795 3.28533 1.84815 3.74179 1.53558 4.23016H16.4648C16.1523 3.74165 15.7923 3.28517 15.3902 2.86734H2.60981ZM8.99994 0.140607C7.26458 0.140607 5.6465 0.641719 4.27953 1.50461H13.7209C12.3535 0.641719 10.7356 0.140607 8.99994 0.140607Z" fill="var(--fill-0, #BF0A30)"/>
<path id="Vector_4" d="M0.16827 8.31962H17.8317C17.7969 7.86044 17.7264 7.40467 17.6207 6.95647H0.379435C0.273829 7.40469 0.203228 7.86045 0.16827 8.31962ZM0.819149 5.59331H17.1807C16.9821 5.11901 16.7425 4.6629 16.4647 4.23016H1.53558C1.25761 4.66286 1.01789 5.11897 0.819149 5.59331Z" fill="var(--fill-0, white)"/>
<path id="Vector_5" d="M8.99409 0.140607C4.10339 0.143405 0.139606 4.10905 0.139606 9.00009C0.139606 9.23356 0.151055 9.46355 0.169288 9.69236H8.99409V0.140607Z" fill="var(--fill-0, #002868)"/>
<path id="Vector_6" d="M0.679644 5.94635C0.667941 5.97883 0.657849 6.0125 0.646231 6.04532H0.647588L0.679644 5.94635ZM0.582712 6.23172C0.552246 6.32677 0.52293 6.42218 0.49477 6.51794L0.586189 6.23452L0.582627 6.23172H0.582712ZM1.01098 9.18132L0.74893 8.99094L0.486289 9.18132L0.586189 8.87297L0.32482 8.68301H0.647588L0.74893 8.37585L0.848067 8.68301H1.17219L0.910399 8.87297L1.01098 9.18132ZM2.1974 7.85175L1.9351 7.66069L1.67313 7.85175L1.7732 7.54349L1.51048 7.3531H1.83477L1.9351 7.04636L2.03491 7.3531H2.35904L2.09665 7.54349L2.1974 7.85175ZM2.12082 4.84211L2.22089 5.14995L1.9591 4.95855L1.69688 5.15003L1.79678 4.84219L1.53516 4.65172H1.85971L1.9591 4.34498L2.059 4.65172H2.38261L2.12082 4.84211ZM3.43233 9.18132L3.1713 8.99094L2.90806 9.18132L3.00856 8.87297L2.74677 8.68301H3.0703L3.17121 8.37585L3.27103 8.68301H3.59515L3.33217 8.87297L3.43233 9.18132ZM3.44997 6.14938L3.33209 6.23452L3.43233 6.54321L3.1713 6.35206L2.90806 6.54321L3.00856 6.23452L2.89144 6.14938L2.74677 6.04532H3.0703L3.17121 5.73663L3.27103 6.04532H3.59515L3.44997 6.14938ZM3.33209 3.47056L3.43233 3.7773L3.1713 3.58818L2.90806 3.7773L3.00856 3.47056L2.74677 3.27941H3.0703L3.17121 2.97224L3.27103 3.27941H3.59515L3.33209 3.47056ZM4.61977 7.94877L4.35789 7.75762L4.09584 7.94877L4.19583 7.63923L3.93437 7.45045H4.2574L4.35789 7.14092L4.45745 7.45045H4.78183L4.51936 7.63923L4.61977 7.94877ZM4.54455 4.93862L4.64428 5.24578L4.38189 5.05497L4.12001 5.24578L4.22034 4.93862L3.95812 4.74823H4.28131L4.38189 4.44039L4.48162 4.74823H4.80557L4.54455 4.93862ZM4.56871 2.20518L4.66819 2.51235L4.40699 2.32315L4.14435 2.51226L4.24391 2.20518L3.98305 2.0148H4.30548L4.40699 1.70687L4.50553 2.01471H4.82966L4.56871 2.20518ZM5.85487 9.18132L5.59384 8.99094L5.33137 9.18132L5.43135 8.87297L5.16973 8.68301H5.49334L5.59384 8.37585L5.6928 8.68301H6.01676L5.75531 8.87297L5.85487 9.18132ZM5.87251 6.14938L5.75531 6.23452L5.85487 6.54321L5.59384 6.35206L5.33137 6.54321L5.43135 6.23452L5.31424 6.14938L5.16973 6.04532H5.49334L5.59384 5.73663L5.6928 6.04532H6.01676L5.87251 6.14938ZM5.75531 3.47056L5.85487 3.7773L5.59384 3.58818L5.33137 3.7773L5.43135 3.47056L5.16973 3.27941H5.49334L5.59384 2.97224L5.6928 3.27941H6.01676L5.75531 3.47056ZM7.04315 7.94877L6.78009 7.75762L6.51906 7.94877L6.61896 7.63923L6.35615 7.45045H6.6807L6.78009 7.14092L6.88084 7.45045H7.20437L6.94215 7.63923L7.04315 7.94877ZM6.96666 4.93862L7.06664 5.24578L6.8046 5.05497L6.54255 5.24578L6.64254 4.93862L6.38091 4.74823H6.70529L6.8046 4.44039L6.90458 4.74823H7.22769L6.96666 4.93862ZM6.99125 2.20518L7.09081 2.51235L6.82978 2.32315L6.56689 2.51226L6.66696 2.20518L6.40559 2.0148H6.72802L6.82978 1.70687L6.9285 2.01471H7.25228L6.99125 2.20518ZM8.27876 9.18132L8.01697 8.99094L7.75399 9.18132L7.85448 8.87297L7.59244 8.68301H7.91546L8.01697 8.37585L8.11577 8.68301H8.4393L8.1781 8.87297L8.27876 9.18132ZM8.29547 6.14938L8.1781 6.23452L8.27885 6.54321L8.01697 6.35206L7.75399 6.54321L7.85448 6.23452L7.73754 6.14938L7.59252 6.04532H7.91546L8.01697 5.73663L8.11577 6.04532H8.4393L8.29547 6.14938ZM8.1781 3.47056L8.27885 3.7773L8.01697 3.58818L7.75399 3.7773L7.85448 3.47056L7.59244 3.27941H7.91546L8.01697 2.97224L8.11577 3.27941H8.4393L8.1781 3.47056ZM8.1781 0.767485L8.27885 1.07507L8.01697 0.885109L7.75399 1.07507L7.85448 0.76757L7.59244 0.576759H7.91546L8.01697 0.26968L8.11577 0.576674H8.4393L8.1781 0.767485ZM5.59384 0.885109L5.85487 1.0755L5.75531 0.767994L5.79152 0.741874C5.6542 0.794821 5.51832 0.851434 5.38403 0.911653L5.33145 1.0755L5.59384 0.885109Z" fill="var(--fill-0, white)"/>
<path id="Vector_7" d="M5.59384 2.97224L5.49334 3.27941H5.16973L5.43135 3.47056L5.33137 3.7773L5.59384 3.58818L5.85487 3.7773L5.75531 3.47056L6.01676 3.27941H5.6928L5.59384 2.97224ZM5.59384 5.73663L5.49334 6.04532H5.16973L5.31424 6.14938L5.43127 6.23452L5.33137 6.54321L5.59384 6.35206L5.85487 6.54321L5.75531 6.23452L5.87251 6.14938L6.01676 6.04532H5.6928L5.59384 5.73663ZM5.6928 8.68301L5.59384 8.37585L5.49334 8.68301H5.16973L5.43135 8.87297L5.33137 9.18132L5.59384 8.99094L5.85487 9.18132L5.75531 8.87297L6.01676 8.68301H5.6928ZM3.1713 2.97224L3.07038 3.27941H2.74677L3.00856 3.47056L2.90806 3.7773L3.1713 3.58818L3.43233 3.7773L3.33217 3.47056L3.59515 3.27941H3.27103L3.1713 2.97224ZM3.1713 5.73663L3.07038 6.04532H2.74677L2.89144 6.14938L3.00856 6.23452L2.90806 6.54321L3.1713 6.35206L3.43233 6.54321L3.33217 6.23452L3.44997 6.14938L3.59515 6.04532H3.27103L3.1713 5.73663ZM3.27103 8.68301L3.1713 8.37585L3.07038 8.68301H2.74677L3.00856 8.87297L2.90806 9.18132L3.1713 8.99094L3.43233 9.18132L3.33217 8.87297L3.59515 8.68301H3.27103ZM0.486289 6.54321L0.487816 6.54211C0.490275 6.53448 0.492649 6.52659 0.49477 6.51794L0.486289 6.54321ZM0.74893 5.73663L0.679644 5.94635C0.70322 5.88224 0.730273 5.81889 0.75546 5.75639L0.74893 5.73663Z" fill="var(--fill-0, white)"/>
<path id="Vector_8" d="M1.01098 6.54321L0.910399 6.23452L1.02743 6.14938L1.17219 6.04532H0.848152L0.755545 5.75639C0.730358 5.81889 0.703305 5.88224 0.679729 5.94635L0.647673 6.04532H0.646316C0.624267 6.10782 0.60349 6.16965 0.582712 6.23172L0.586274 6.23452L0.494854 6.51794C0.492806 6.52607 0.490486 6.53413 0.4879 6.54211L0.749015 6.35206L1.01106 6.54321H1.01098ZM0.848067 8.68301L0.748845 8.37585L0.647588 8.68301H0.32482L0.586189 8.87297L0.486289 9.18132L0.74893 8.99094L1.01098 9.18132L0.910399 8.87297L1.17219 8.68301H0.848067ZM6.8046 4.44039L6.70529 4.74823H6.38083L6.64245 4.93862L6.54247 5.24578L6.80451 5.05497L7.06656 5.24578L6.96657 4.93862L7.22769 4.74823H6.9045L6.8046 4.44039ZM6.88084 7.45045L6.78009 7.14092L6.6807 7.45045H6.35623L6.61913 7.63923L6.51906 7.94877L6.78017 7.75762L7.04315 7.94877L6.94224 7.63923L7.20445 7.45045H6.88084ZM4.38189 4.44039L4.28131 4.74823H3.9582L4.22034 4.93862L4.12001 5.24578L4.38189 5.05497L4.64428 5.24578L4.54455 4.93862L4.80557 4.74823H4.48162L4.38189 4.44039ZM4.45745 7.45045L4.35789 7.14092L4.2574 7.45045H3.93437L4.19583 7.63923L4.09584 7.94877L4.35789 7.75762L4.61977 7.94877L4.51936 7.63923L4.78183 7.45045H4.45745ZM1.9591 4.3449L1.85971 4.65164H1.53516L1.79678 4.84211L1.69688 5.14995L1.9591 4.95855L2.22089 5.15003L2.12082 4.84219L2.38261 4.65172H2.059L1.9591 4.3449ZM2.03491 7.3531L1.9351 7.04636L1.83477 7.3531H1.51048L1.7732 7.54349L1.67313 7.85175L1.93518 7.66069L2.1974 7.85175L2.09665 7.54349L2.35904 7.3531H2.03491ZM8.01697 2.97224L7.91546 3.27941H7.59252L7.85457 3.47056L7.75399 3.7773L8.01697 3.58818L8.27885 3.7773L8.1781 3.47056L8.4393 3.27941H8.11577L8.01697 2.97224ZM4.40699 1.70687L4.30548 2.01471H3.98305L4.24391 2.20518L4.14435 2.51235L4.40699 2.32315L4.66819 2.51226L4.56871 2.20518L4.82966 2.0148H4.50553L4.40699 1.70687ZM6.82978 1.70687L6.72802 2.01471H6.40559L6.66687 2.20518L6.56697 2.51235L6.82978 2.32315L7.09081 2.51226L6.99125 2.20518L7.25228 2.0148H6.9285L6.82978 1.70687ZM8.01697 0.26968L7.91546 0.576674H7.59252L7.85457 0.767485L7.75399 1.07499L8.01697 0.885025L8.27885 1.07499L8.1781 0.767485L8.4393 0.576674H8.11577L8.01697 0.26968ZM8.01697 5.73663L7.91546 6.04532H7.59252L7.73754 6.14938L7.85457 6.23452L7.75399 6.54321L8.01697 6.35206L8.27885 6.54321L8.1781 6.23452L8.29547 6.14938L8.4393 6.04532H8.11577L8.01697 5.73663ZM8.11577 8.68301L8.01697 8.37585L7.91546 8.68301H7.59252L7.85457 8.87297L7.75399 9.18132L8.01697 8.99094L8.27885 9.18132L8.1781 8.87297L8.4393 8.68301H8.11577Z" fill="var(--fill-0, white)"/>
</g>
<defs>
<clipPath id="clip0_0_23">
<rect width="18" height="18" fill="white"/>
</clipPath>
</defs>
</svg>
