<svg preserveAspectRatio="none" width="100%" height="100%" overflow="visible" style="display: block;" viewBox="0 0 13 13" fill="none" xmlns="http://www.w3.org/2000/svg">
<g id="Frame" clip-path="url(#clip0_0_36)">
<path id="Vector" d="M6.5 12.5938C3.13462 12.5938 0.40625 9.86538 0.40625 6.5C0.40625 3.13462 3.13462 0.40625 6.5 0.40625C9.86538 0.40625 12.5938 3.13462 12.5938 6.5C12.5938 9.86538 9.86538 12.5938 6.5 12.5938ZM6.5 11.7812C9.41687 11.7812 11.7812 9.41687 11.7812 6.5C11.7812 3.58313 9.41687 1.21875 6.5 1.21875C3.58313 1.21875 1.21875 3.58313 1.21875 6.5C1.21875 9.41687 3.58313 11.7812 6.5 11.7812Z" fill="var(--fill-0, #333333)" fill-opacity="0.7"/>
<path id="Vector_2" d="M7.00781 7.63872V7.9235H5.99219V7.63872C5.99219 6.9875 6.29931 6.37163 6.73887 5.90322C7.07484 5.54491 7.0655 5.55506 7.16138 5.44131C7.41488 5.13947 7.51562 4.92375 7.51562 4.67188C7.51562 4.40251 7.40862 4.14419 7.21816 3.95372C7.02769 3.76325 6.76936 3.65625 6.5 3.65625C6.23064 3.65625 5.97231 3.76325 5.78184 3.95372C5.59138 4.14419 5.48438 4.40251 5.48438 4.67188H4.46875C4.46875 4.13315 4.68276 3.6165 5.06369 3.23556C5.44462 2.85463 5.96128 2.64063 6.5 2.64062C7.03872 2.64062 7.55538 2.85463 7.93631 3.23556C8.31724 3.6165 8.53125 4.13315 8.53125 4.67188C8.53125 5.20081 8.33219 5.62656 7.93894 6.09456C7.87272 6.17337 7.80081 6.25422 7.71225 6.34969C7.67812 6.38625 7.64319 6.42444 7.59606 6.474L7.47988 6.59791C7.20119 6.89447 7.00781 7.28244 7.00781 7.63872ZM6.92981 9.11503C7.04966 9.23325 7.10938 9.37747 7.10938 9.54688C7.10938 9.71953 7.04966 9.86416 6.92981 9.98116C6.87359 10.0377 6.80656 10.0823 6.73272 10.1124C6.65887 10.1425 6.57973 10.1574 6.5 10.1562C6.33344 10.1563 6.18963 10.0978 6.07019 9.98116C6.01172 9.92522 5.96556 9.85771 5.93464 9.78294C5.90372 9.70816 5.88873 9.62777 5.89062 9.54688C5.89062 9.37747 5.95034 9.23325 6.07019 9.11503C6.12606 9.05786 6.19297 9.01264 6.26686 8.98212C6.34075 8.9516 6.42007 8.93642 6.5 8.9375C6.66656 8.9375 6.81038 8.99681 6.92981 9.11503Z" fill="var(--fill-0, #333333)" fill-opacity="0.7"/>
</g>
<defs>
<clipPath id="clip0_0_36">
<rect width="13" height="13" fill="white"/>
</clipPath>
</defs>
</svg>
