<svg preserveAspectRatio="none" width="100%" height="100%" overflow="visible" style="display: block;" viewBox="0 0 24 24" fill="none" xmlns="http://www.w3.org/2000/svg">
<g id="choiceness 1">
<path id="Vector" d="M22.5045 8.4645L20.0603 2.69775C19.9425 2.42025 19.6703 2.24025 19.3695 2.24025H5.43825C5.1645 2.24025 4.91325 2.3895 4.78125 2.62875L1.65375 8.3145C1.5075 8.58 1.53525 8.90625 1.7235 9.1425L11.5193 21.456C11.6618 21.6353 11.8778 21.7395 12.1065 21.7395C12.3353 21.7395 12.5513 21.6345 12.6938 21.456L22.401 9.22275C22.572 9.00825 22.611 8.71725 22.5045 8.4645ZM17.3888 3.7395L12.084 8.019L7.22475 3.7395H17.3888ZM5.57925 4.28925L10.0763 8.25H5.25C4.836 8.25 4.5 8.586 4.5 9C4.5 9.414 4.836 9.75 5.25 9.75H11.25V18.7088L3.2085 8.5995L5.57925 4.28925ZM12.75 18.972V9.75H18.75C19.1648 9.75 19.5 9.414 19.5 9C19.5 8.586 19.1648 8.25 18.75 8.25H14.1863L19.104 4.28325L20.9498 8.63925L12.75 18.972Z" fill="var(--fill-0, #9C8787)"/>
</g>
</svg>
