<svg preserveAspectRatio="none" width="100%" height="100%" overflow="visible" style="display: block;" viewBox="0 0 24 24" fill="none" xmlns="http://www.w3.org/2000/svg">
<g id="people 1">
<path id="Vector" d="M18.75 9C18.75 5.25 15.75 2.25 12 2.25C8.25 2.25 5.25 5.25 5.25 9C5.25 11.55 6.6 13.725 8.7 14.85C5.85 15.975 3.675 18.45 3.075 21.6C3 21.975 3.225 22.425 3.675 22.5H3.825C4.2 22.5 4.5 22.275 4.575 21.9C5.25 18.375 8.325 15.825 11.925 15.75H12.075C15.75 15.75 18.75 12.75 18.75 9ZM6.75 9C6.75 6.075 9.075 3.75 12 3.75C14.925 3.75 17.25 6.075 17.25 9C17.25 11.85 14.925 14.175 12.075 14.25H11.85C9 14.175 6.75 11.85 6.75 9ZM16.95 15.825C16.575 15.6 16.125 15.675 15.9 16.05C15.675 16.425 15.75 16.875 16.125 17.1C17.85 18.3 19.05 19.95 19.425 21.9C19.5 22.275 19.8 22.5 20.175 22.5H20.325C20.7 22.425 21 22.05 20.925 21.6C20.475 19.275 19.05 17.25 16.95 15.825Z" fill="var(--fill-0, #9C8787)"/>
</g>
</svg>
