<svg preserveAspectRatio="none" width="100%" height="100%" overflow="visible" style="display: block;" viewBox="0 0 24 24" fill="none" xmlns="http://www.w3.org/2000/svg">
<g id="group 1">
<path id="Vector" d="M14.55 14.325C16.125 13.425 17.25 11.7 17.25 9.75C17.25 6.825 14.925 4.5 12 4.5C9.075 4.5 6.75 6.825 6.75 9.75C6.75 11.7 7.8 13.425 9.45 14.325C7.35 15.15 5.775 17.025 5.25 19.275C5.175 19.65 5.4 20.1 5.85 20.175H6C6.375 20.175 6.675 19.95 6.75 19.575C7.275 17.1 9.45 15.3 12 15.3C14.55 15.3 16.725 17.1 17.25 19.575C17.325 19.95 17.7 20.25 18.15 20.175C18.525 20.1 18.825 19.725 18.75 19.275C18.225 17.025 16.65 15.15 14.55 14.325ZM8.25 9.75C8.25 7.65 9.9 6 12 6C14.1 6 15.75 7.65 15.75 9.75C15.75 11.85 14.1 13.5 12 13.5C9.9 13.5 8.25 11.85 8.25 9.75ZM23.25 14.775C22.95 13.275 21.975 12.075 20.475 11.4C21.3 10.65 21.75 9.6 21.75 8.4C21.75 6.225 20.1 4.5 18 4.5C17.55 4.5 17.25 4.8 17.25 5.25C17.25 5.7 17.55 6 18 6C19.275 6 20.25 7.05 20.25 8.4C20.25 9.6 19.575 10.5 18.525 10.725C18.15 10.8 17.85 11.25 18 11.625C18 12 18.225 12.3 18.6 12.3C20.25 12.6 21.375 13.575 21.675 15C21.75 15.375 22.05 15.6 22.425 15.6H22.575C23.025 15.6 23.325 15.225 23.25 14.775ZM5.925 11.7C6.075 11.25 5.775 10.875 5.4 10.725C4.425 10.5 3.75 9.6 3.75 8.4C3.825 7.05 4.725 6 6 6C6.45 6 6.75 5.7 6.75 5.25C6.75 4.8 6.375 4.5 6 4.5C3.9 4.5 2.325 6.15 2.325 8.4C2.325 9.6 2.775 10.65 3.525 11.4C2.1 12.075 1.05 13.275 0.75 14.775C0.675 15.15 0.9 15.6 1.35 15.675H1.5C1.875 15.675 2.175 15.45 2.25 15.075C2.55 13.65 3.675 12.675 5.325 12.375C5.7 12.375 5.925 12.075 5.925 11.7Z" fill="var(--fill-0, #9C8787)"/>
</g>
</svg>
