<svg width="13" height="13" viewBox="0 0 13 13" fill="none" xmlns="http://www.w3.org/2000/svg">
<g clip-path="url(#clip0_114_2649)">
<path d="M6.5 1.625C9.19141 1.625 11.375 3.80859 11.375 6.5C11.375 9.19141 9.19141 11.375 6.5 11.375C3.80859 11.375 1.625 9.19141 1.625 6.5C1.625 3.80859 3.80859 1.625 6.5 1.625ZM6.5 0.8125C3.36172 0.8125 0.8125 3.36172 0.8125 6.5C0.8125 9.63828 3.36172 12.1875 6.5 12.1875C9.63828 12.1875 12.1875 9.63828 12.1875 6.5C12.1875 3.36172 9.63828 0.8125 6.5 0.8125Z" fill="#F70000"/>
<path d="M6.09375 8.9375H6.90625V9.75H6.09375V8.9375ZM6.09375 3.25H6.90625V8.125H6.09375V3.25Z" fill="#F70000"/>
</g>
<defs>
<clipPath id="clip0_114_2649">
<rect width="13" height="13" fill="white"/>
</clipPath>
</defs>
</svg>
