<svg width="22" height="22" viewBox="0 0 22 22" fill="none" xmlns="http://www.w3.org/2000/svg">
<path d="M11 1.41667C7.51671 1.41667 4.85837 2.88333 2.93337 6C4.85837 9.11667 7.51671 10.5833 11 10.5833C14.4834 10.5833 17.1417 9.11667 19.0667 6C17.1417 2.88333 14.4834 1.41667 11 1.41667ZM11 11.5C7.05837 11.5 3.94171 9.66667 1.83337 6C3.94171 2.33333 7.05837 0.5 11 0.5C14.9417 0.5 18.0584 2.33333 20.1667 6C18.0584 9.66667 14.9417 11.5 11 11.5ZM11 7.83333C12.0084 7.83333 12.8334 7.00833 12.8334 6C12.8334 4.99167 12.0084 4.16667 11 4.16667C9.99171 4.16667 9.16671 4.99167 9.16671 6C9.16671 7.00833 9.99171 7.83333 11 7.83333ZM11 8.75C9.44171 8.75 8.25004 7.55833 8.25004 6C8.25004 4.44167 9.44171 3.25 11 3.25C12.5584 3.25 13.75 4.44167 13.75 6C13.75 7.55833 12.5584 8.75 11 8.75Z" fill="#1E1917"/>
</svg>
