<svg width="20" height="19" viewBox="0 0 20 19" fill="none" xmlns="http://www.w3.org/2000/svg">
<path fill-rule="evenodd" clip-rule="evenodd" d="M14.2466 2.06685C13.4608 1.96456 12.4284 1.96339 10.9751 1.9634L7.69698 1.96343C6.18815 1.96344 5.11622 1.96472 4.30305 2.07434C3.50695 2.18167 3.04829 2.38293 2.71341 2.71871C2.37853 3.05448 2.17781 3.51437 2.07079 4.3126C1.96147 5.12794 1.96022 6.20272 1.96024 7.71558L1.96031 14.0625C1.96032 14.7751 1.96189 15.2414 2.00872 15.5613C2.03088 15.7127 2.05712 15.7864 2.07344 15.8192C2.10939 15.8126 2.18388 15.7894 2.31797 15.7164C2.60137 15.5619 2.97432 15.2834 3.5429 14.8558L3.84398 14.6294L3.92331 14.5697C4.68362 13.9976 5.17485 13.628 5.75466 13.4342C6.33447 13.2404 6.94863 13.2406 7.89921 13.2408L7.99839 13.2408H10.9752C12.4284 13.2408 13.4608 13.2396 14.2467 13.1373C15.0167 13.0371 15.4639 12.8488 15.7939 12.536C15.8289 12.5029 15.8629 12.4688 15.896 12.4337C16.2079 12.1028 16.3957 11.6544 16.4957 10.8823C16.5977 10.0944 16.5989 9.05924 16.5989 7.60211C16.5989 6.14497 16.5977 5.10982 16.4957 4.32186C16.3957 3.54978 16.2079 3.10134 15.8959 2.77046C15.8629 2.73541 15.8289 2.7013 15.7939 2.66817C15.4639 2.35535 15.0167 2.16709 14.2466 2.06685ZM2.04561 15.8205C2.04594 15.8199 2.04977 15.8197 2.05608 15.8214C2.04843 15.8218 2.04528 15.821 2.04561 15.8205ZM2.08207 15.8344C2.08719 15.8385 2.08931 15.8417 2.08909 15.8423C2.08887 15.8429 2.0863 15.8408 2.08207 15.8344ZM14.3995 0.886672C15.2953 1.00329 16.0242 1.24874 16.6093 1.80337C16.6604 1.8518 16.7101 1.90166 16.7584 1.95288C17.3116 2.53954 17.5564 3.27035 17.6727 4.16863C17.7858 5.04212 17.7858 6.15461 17.7858 7.55907V7.60211V7.64515C17.7858 9.0496 17.7858 10.1621 17.6727 11.0356C17.5564 11.9338 17.3116 12.6646 16.7585 13.2513C16.7102 13.3025 16.6604 13.3524 16.6093 13.4008C16.0242 13.9554 15.2954 14.2009 14.3995 14.3175C13.5283 14.4309 12.4188 14.4309 11.0181 14.4309H10.9752H7.99839C6.91423 14.4309 6.50488 14.4379 6.13002 14.5632C5.75516 14.6885 5.42347 14.9292 4.55616 15.5814L4.25509 15.8079L4.21688 15.8366C3.69714 16.2275 3.25411 16.5607 2.88475 16.762C2.51021 16.9661 2.02903 17.1368 1.5389 16.8911C1.04878 16.6454 0.89627 16.157 0.834375 15.7341C0.773336 15.3171 0.773361 14.7618 0.773389 14.1104L0.773391 14.0625L0.773318 7.71559L0.773316 7.67083C0.773288 6.21278 0.773265 5.05787 0.89445 4.15403C1.01917 3.22384 1.28196 2.47095 1.87412 1.8772C2.46628 1.28345 3.21717 1.01994 4.14488 0.894873C5.04632 0.773346 6.19814 0.773346 7.65233 0.773346L7.69697 0.773346L10.9751 0.773316H11.018C12.4187 0.773293 13.5283 0.773274 14.3995 0.886672ZM12.4974 4.74021C12.8252 4.74021 13.0909 5.00662 13.0909 5.33526V6.10142H13.658H14.8185C15.1463 6.10142 15.412 6.36783 15.412 6.69646C15.412 7.0251 15.1463 7.29151 14.8185 7.29151H14.1503C13.983 7.97208 13.6185 8.85244 12.9623 9.6511C13.3279 9.96682 13.7225 10.2066 14.1263 10.3138C14.4432 10.3979 14.632 10.7236 14.5482 11.0413C14.4643 11.3589 14.1395 11.5483 13.8226 11.4642C13.1678 11.2904 12.5918 10.9151 12.1129 10.4871C11.6039 10.8902 10.9867 11.2319 10.2433 11.4583C9.92968 11.5539 9.59823 11.3764 9.50296 11.0619C9.4077 10.7475 9.58471 10.4151 9.89832 10.3196C10.4467 10.1526 10.909 9.90504 11.2962 9.61252C10.9011 9.11355 10.6052 8.61715 10.4338 8.2632C10.2906 7.96759 10.4135 7.61156 10.7083 7.46798C11.0031 7.3244 11.3582 7.44764 11.5014 7.74325C11.6264 8.00134 11.8481 8.3784 12.145 8.76855C12.5294 8.2694 12.7761 7.74082 12.9192 7.29151H12.4974H10.0708C9.74305 7.29151 9.47735 7.0251 9.47735 6.69646C9.47735 6.36783 9.74305 6.10142 10.0708 6.10142H11.9039V5.33526C11.9039 5.00662 12.1696 4.74021 12.4974 4.74021ZM6.42668 3.96676C6.18911 3.2998 5.2484 3.2998 5.01083 3.96676L3.89945 7.08692L3.18166 9.10207C3.07143 9.41156 3.23228 9.75205 3.54095 9.86258C3.84961 9.97311 4.1892 9.81183 4.29944 9.50234L4.87656 7.8821H6.56095L7.13807 9.50234C7.24831 9.81183 7.5879 9.97311 7.89656 9.86258C8.20523 9.75205 8.36609 9.41156 8.25585 9.10207L7.53806 7.08692L6.42668 3.96676ZM5.71876 5.51766L6.13705 6.69201H5.30046L5.71876 5.51766Z" fill="#AF8C50"/>
</svg>
